
    <svg xmlns="http://www.w3.org/2000/svg" width="1360" height="860" viewBox="0 0 1360 860">
      <defs>
        <linearGradient id="bg" x1="0%" y1="0%" x2="100%" y2="100%">
          <stop offset="0%" stop-color="#f5f9ff" />
          <stop offset="100%" stop-color="#e7f0fb" />
        </linearGradient>
        <filter id="shadow" x="-20%" y="-20%" width="140%" height="140%">
          <feDropShadow dx="0" dy="10" stdDeviation="14" flood-color="#9fb6d4" flood-opacity="0.28" />
        </filter>
      </defs>
      <rect width="1360" height="860" fill="url(#bg)" />
      
      <g>
        <rect x="24" y="24" width="1312" height="52" rx="18" fill="#0f172a" />
        <text x="48" y="56" font-size="18" font-weight="700" font-family="Arial, sans-serif" fill="#eff6ff">Workflow Canvas</text>
        <rect x="1150" y="38" width="78" height="24" rx="12" fill="#1d4ed8" />
        <text x="1189" y="54" text-anchor="middle" font-size="12" font-family="Arial, sans-serif" fill="#dbeafe">Connect</text>
        <rect x="1242" y="38" width="70" height="24" rx="12" fill="#16243d" stroke="#334155" />
        <text x="1277" y="54" text-anchor="middle" font-size="12" font-family="Arial, sans-serif" fill="#bfd2ea">Canvas</text>
      </g>
    
      <text x="24" y="108" font-size="28" font-weight="700" font-family="Arial, sans-serif" fill="#11263c">画布编辑器总览</text>
      <text x="24" y="136" font-size="14" font-family="Arial, sans-serif" fill="#5d748f">正交连线、减少交叉、不可避免交叉时用弧桥标识“仅跨越不连接”。</text>
      <g transform="translate(24, 92)">
        <rect width="1062" height="740" rx="28" fill="#ffffff" stroke="#d6e4f5" filter="url(#shadow)" />
        <clipPath id="canvasClip">
          <rect width="1062" height="740" rx="28" />
        </clipPath>
        <g clip-path="url(#canvasClip)">
          <g><line x1="0" y1="0" x2="0" y2="740" stroke="rgba(146, 170, 199, 0.12)" /><line x1="40" y1="0" x2="40" y2="740" stroke="rgba(146, 170, 199, 0.12)" /><line x1="80" y1="0" x2="80" y2="740" stroke="rgba(146, 170, 199, 0.12)" /><line x1="120" y1="0" x2="120" y2="740" stroke="rgba(146, 170, 199, 0.12)" /><line x1="160" y1="0" x2="160" y2="740" stroke="rgba(146, 170, 199, 0.12)" /><line x1="200" y1="0" x2="200" y2="740" stroke="rgba(146, 170, 199, 0.12)" /><line x1="240" y1="0" x2="240" y2="740" stroke="rgba(146, 170, 199, 0.12)" /><line x1="280" y1="0" x2="280" y2="740" stroke="rgba(146, 170, 199, 0.12)" /><line x1="320" y1="0" x2="320" y2="740" stroke="rgba(146, 170, 199, 0.12)" /><line x1="360" y1="0" x2="360" y2="740" stroke="rgba(146, 170, 199, 0.12)" /><line x1="400" y1="0" x2="400" y2="740" stroke="rgba(146, 170, 199, 0.12)" /><line x1="440" y1="0" x2="440" y2="740" stroke="rgba(146, 170, 199, 0.12)" /><line x1="480" y1="0" x2="480" y2="740" stroke="rgba(146, 170, 199, 0.12)" /><line x1="520" y1="0" x2="520" y2="740" stroke="rgba(146, 170, 199, 0.12)" /><line x1="560" y1="0" x2="560" y2="740" stroke="rgba(146, 170, 199, 0.12)" /><line x1="600" y1="0" x2="600" y2="740" stroke="rgba(146, 170, 199, 0.12)" /><line x1="640" y1="0" x2="640" y2="740" stroke="rgba(146, 170, 199, 0.12)" /><line x1="680" y1="0" x2="680" y2="740" stroke="rgba(146, 170, 199, 0.12)" /><line x1="720" y1="0" x2="720" y2="740" stroke="rgba(146, 170, 199, 0.12)" /><line x1="760" y1="0" x2="760" y2="740" stroke="rgba(146, 170, 199, 0.12)" /><line x1="800" y1="0" x2="800" y2="740" stroke="rgba(146, 170, 199, 0.12)" /><line x1="840" y1="0" x2="840" y2="740" stroke="rgba(146, 170, 199, 0.12)" /><line x1="880" y1="0" x2="880" y2="740" stroke="rgba(146, 170, 199, 0.12)" /><line x1="920" y1="0" x2="920" y2="740" stroke="rgba(146, 170, 199, 0.12)" /><line x1="960" y1="0" x2="960" y2="740" stroke="rgba(146, 170, 199, 0.12)" /><line x1="1000" y1="0" x2="1000" y2="740" stroke="rgba(146, 170, 199, 0.12)" /><line x1="1040" y1="0" x2="1040" y2="740" stroke="rgba(146, 170, 199, 0.12)" /><line x1="0" y1="0" x2="1062" y2="0" stroke="rgba(146, 170, 199, 0.12)" /><line x1="0" y1="40" x2="1062" y2="40" stroke="rgba(146, 170, 199, 0.12)" /><line x1="0" y1="80" x2="1062" y2="80" stroke="rgba(146, 170, 199, 0.12)" /><line x1="0" y1="120" x2="1062" y2="120" stroke="rgba(146, 170, 199, 0.12)" /><line x1="0" y1="160" x2="1062" y2="160" stroke="rgba(146, 170, 199, 0.12)" /><line x1="0" y1="200" x2="1062" y2="200" stroke="rgba(146, 170, 199, 0.12)" /><line x1="0" y1="240" x2="1062" y2="240" stroke="rgba(146, 170, 199, 0.12)" /><line x1="0" y1="280" x2="1062" y2="280" stroke="rgba(146, 170, 199, 0.12)" /><line x1="0" y1="320" x2="1062" y2="320" stroke="rgba(146, 170, 199, 0.12)" /><line x1="0" y1="360" x2="1062" y2="360" stroke="rgba(146, 170, 199, 0.12)" /><line x1="0" y1="400" x2="1062" y2="400" stroke="rgba(146, 170, 199, 0.12)" /><line x1="0" y1="440" x2="1062" y2="440" stroke="rgba(146, 170, 199, 0.12)" /><line x1="0" y1="480" x2="1062" y2="480" stroke="rgba(146, 170, 199, 0.12)" /><line x1="0" y1="520" x2="1062" y2="520" stroke="rgba(146, 170, 199, 0.12)" /><line x1="0" y1="560" x2="1062" y2="560" stroke="rgba(146, 170, 199, 0.12)" /><line x1="0" y1="600" x2="1062" y2="600" stroke="rgba(146, 170, 199, 0.12)" /><line x1="0" y1="640" x2="1062" y2="640" stroke="rgba(146, 170, 199, 0.12)" /><line x1="0" y1="680" x2="1062" y2="680" stroke="rgba(146, 170, 199, 0.12)" /><line x1="0" y1="720" x2="1062" y2="720" stroke="rgba(146, 170, 199, 0.12)" /></g>
          
    <g>
      <path d="M 374 102 L 594 102 L 594 162" fill="none" stroke="#2563eb" stroke-width="3" stroke-linecap="round" stroke-linejoin="round" />
      
      
      <circle cx="594" cy="162" r="4.5" fill="#2563eb" />
      
      <g>
        <rect x="480" y="75" width="68" height="24" rx="12" fill="#f8fbff" stroke="#d6e4f5" />
        <text x="514" y="92" text-anchor="middle" font-size="12" font-family="Arial, sans-serif" fill="#315b8c">research</text>
      </g>
    
    </g>
  
    <g>
      <path d="M 268 184 L 264 184 L 264 164" fill="none" stroke="#2563eb" stroke-width="3" stroke-linecap="round" stroke-linejoin="round" />
      
      
      <circle cx="264" cy="164" r="4.5" fill="#2563eb" />
      
    </g>
  
    <g>
      <path d="M 594 162 L 834 162 L 834 122" fill="none" stroke="#2563eb" stroke-width="3" stroke-linecap="round" stroke-linejoin="round" />
      
      
      <circle cx="834" cy="122" r="4.5" fill="#2563eb" />
      
      <g>
        <rect x="700" y="135" width="68" height="24" rx="12" fill="#f8fbff" stroke="#d6e4f5" />
        <text x="734" y="152" text-anchor="middle" font-size="12" font-family="Arial, sans-serif" fill="#315b8c">handoff</text>
      </g>
    
    </g>
  
    <g>
      <path d="M 594 246 L 834 246" fill="none" stroke="#2563eb" stroke-width="3" stroke-linecap="round" stroke-linejoin="round" />
      
      
      <circle cx="834" cy="246" r="4.5" fill="#2563eb" />
      
      <g>
        <rect x="680" y="219" width="68" height="24" rx="12" fill="#f8fbff" stroke="#d6e4f5" />
        <text x="714" y="236" text-anchor="middle" font-size="12" font-family="Arial, sans-serif" fill="#315b8c">approval</text>
      </g>
    
    </g>
  
    <g>
      <path d="M 944 184 L 858 184" fill="none" stroke="#2563eb" stroke-width="3" stroke-linecap="round" stroke-linejoin="round" />
      
      
      <circle cx="858" cy="184" r="4.5" fill="#2563eb" />
      
    </g>
  
    <g>
      <path d="M 374 226 L 594 226 L 594 246" fill="none" stroke="#2563eb" stroke-width="3" stroke-linecap="round" stroke-linejoin="round" />
      
      
      <circle cx="594" cy="246" r="4.5" fill="#2563eb" />
      
      <g>
        <rect x="460" y="199" width="68" height="24" rx="12" fill="#f8fbff" stroke="#d6e4f5" />
        <text x="494" y="216" text-anchor="middle" font-size="12" font-family="Arial, sans-serif" fill="#315b8c">draft</text>
      </g>
    
    </g>
  
          
    <g>
      
      <rect x="64" y="138" width="188" height="92" rx="22" fill="#10261c" stroke="#31c48d" stroke-width="2" />
      <rect x="80" y="152" width="60" height="24" rx="12" fill="#173528" />
      <text x="110" y="168" text-anchor="middle" font-size="12" font-family="Arial, sans-serif" fill="#8ff5cb">Entry</text>
      <text x="80" y="196" font-size="18" font-weight="700" font-family="Arial, sans-serif" fill="#d8fff0">Start</text>
      <text x="80" y="216" font-size="12" font-family="Arial, sans-serif" fill="#6b7f96">Workflow entry point</text>
    </g>
  
    <g>
      <rect x="274" y="112" width="200" height="104" rx="26" fill="none" stroke="#3b82f6" stroke-width="2.5" stroke-dasharray="8 6" />
      <rect x="280" y="118" width="188" height="92" rx="22" fill="#f8fbff" stroke="#bfd2ea" stroke-width="2" />
      <rect x="296" y="132" width="60" height="24" rx="12" fill="#eaf2fb" />
      <text x="326" y="148" text-anchor="middle" font-size="12" font-family="Arial, sans-serif" fill="#3f6ea7">Agent</text>
      <text x="296" y="176" font-size="18" font-weight="700" font-family="Arial, sans-serif" fill="#11263c">Planner</text>
      <text x="296" y="196" font-size="12" font-family="Arial, sans-serif" fill="#6b7f96">Editable agent node</text>
    </g>
  
    <g>
      
      <rect x="500" y="54" width="188" height="92" rx="22" fill="#f8fbff" stroke="#bfd2ea" stroke-width="2" />
      <rect x="516" y="68" width="60" height="24" rx="12" fill="#eaf2fb" />
      <text x="546" y="84" text-anchor="middle" font-size="12" font-family="Arial, sans-serif" fill="#3f6ea7">Agent</text>
      <text x="516" y="112" font-size="18" font-weight="700" font-family="Arial, sans-serif" fill="#11263c">Research Agent</text>
      <text x="516" y="132" font-size="12" font-family="Arial, sans-serif" fill="#6b7f96">Editable agent node</text>
    </g>
  
    <g>
      
      <rect x="500" y="262" width="188" height="92" rx="22" fill="#f8fbff" stroke="#bfd2ea" stroke-width="2" />
      <rect x="516" y="276" width="60" height="24" rx="12" fill="#eaf2fb" />
      <text x="546" y="292" text-anchor="middle" font-size="12" font-family="Arial, sans-serif" fill="#3f6ea7">Agent</text>
      <text x="516" y="320" font-size="18" font-weight="700" font-family="Arial, sans-serif" fill="#11263c">Writer Agent</text>
      <text x="516" y="340" font-size="12" font-family="Arial, sans-serif" fill="#6b7f96">Editable agent node</text>
    </g>
  
    <g>
      
      <rect x="740" y="138" width="188" height="92" rx="22" fill="#f8fbff" stroke="#bfd2ea" stroke-width="2" />
      <rect x="756" y="152" width="60" height="24" rx="12" fill="#eaf2fb" />
      <text x="786" y="168" text-anchor="middle" font-size="12" font-family="Arial, sans-serif" fill="#3f6ea7">Agent</text>
      <text x="756" y="196" font-size="18" font-weight="700" font-family="Arial, sans-serif" fill="#11263c">Review Agent</text>
      <text x="756" y="216" font-size="12" font-family="Arial, sans-serif" fill="#6b7f96">Editable agent node</text>
    </g>
  
    <g>
      
      <rect x="874" y="138" width="188" height="92" rx="22" fill="#f8fbff" stroke="#bfd2ea" stroke-width="2" />
      <rect x="890" y="152" width="60" height="24" rx="12" fill="#eaf2fb" />
      <text x="920" y="168" text-anchor="middle" font-size="12" font-family="Arial, sans-serif" fill="#3f6ea7">Agent</text>
      <text x="890" y="196" font-size="18" font-weight="700" font-family="Arial, sans-serif" fill="#11263c">Publish</text>
      <text x="890" y="216" font-size="12" font-family="Arial, sans-serif" fill="#6b7f96">Editable agent node</text>
    </g>
  
        </g>
      </g>
      
      <g transform="translate(1134, 92)">
        <rect width="202" height="740" rx="22" fill="#f8fbff" stroke="#d6e4f5" />
        <text x="22" y="32" font-size="16" font-weight="700" font-family="Arial, sans-serif" fill="#11263c">Inspector</text>
        <text x="22" y="58" font-size="12" font-family="Arial, sans-serif" fill="#5d748f">Current routing policy</text>
        <rect x="22" y="74" width="158" height="30" rx="15" fill="#eaf2fb" />
        <text x="101" y="93" text-anchor="middle" font-size="12" font-family="Arial, sans-serif" fill="#315b8c">Minimize crossings</text>
        <text x="22" y="134" font-size="12" font-family="Arial, sans-serif" fill="#5d748f">Visual crossovers</text>
        <rect x="22" y="148" width="158" height="78" rx="18" fill="#f0f7ff" stroke="#d6e4f5" />
        <text x="38" y="176" font-size="12" font-family="Arial, sans-serif" fill="#315b8c">• Orthogonal paths</text>
        <text x="38" y="196" font-size="12" font-family="Arial, sans-serif" fill="#315b8c">• Fan-out / fan-in bundles</text>
        <text x="38" y="216" font-size="12" font-family="Arial, sans-serif" fill="#315b8c">• Bridge arcs for crossovers</text>
      </g>
    
    </svg>
  