
    <svg xmlns="http://www.w3.org/2000/svg" width="1100" height="640" viewBox="0 0 1100 640">
      <defs>
        <linearGradient id="bg" x1="0%" y1="0%" x2="100%" y2="100%">
          <stop offset="0%" stop-color="#f5f9ff" />
          <stop offset="100%" stop-color="#e7f0fb" />
        </linearGradient>
        <filter id="shadow" x="-20%" y="-20%" width="140%" height="140%">
          <feDropShadow dx="0" dy="10" stdDeviation="14" flood-color="#9fb6d4" flood-opacity="0.28" />
        </filter>
      </defs>
      <rect width="1100" height="640" fill="url(#bg)" />
      
      <text x="24" y="34" font-size="24" font-weight="700" font-family="Arial, sans-serif" fill="#11263c">同源多分支会先做 fan-out 收束</text>
      <text x="24" y="58" font-size="14" font-family="Arial, sans-serif" fill="#5d748f">从同一节点发散的路径优先共享主干，再分别进入目标节点，减少不必要交叉。</text>
      <g transform="translate(24, 24)">
        <rect width="1052" height="588" rx="28" fill="#ffffff" stroke="#d6e4f5" filter="url(#shadow)" />
        <clipPath id="canvasClip">
          <rect width="1052" height="588" rx="28" />
        </clipPath>
        <g clip-path="url(#canvasClip)">
          <g><line x1="0" y1="0" x2="0" y2="588" stroke="rgba(146, 170, 199, 0.12)" /><line x1="40" y1="0" x2="40" y2="588" stroke="rgba(146, 170, 199, 0.12)" /><line x1="80" y1="0" x2="80" y2="588" stroke="rgba(146, 170, 199, 0.12)" /><line x1="120" y1="0" x2="120" y2="588" stroke="rgba(146, 170, 199, 0.12)" /><line x1="160" y1="0" x2="160" y2="588" stroke="rgba(146, 170, 199, 0.12)" /><line x1="200" y1="0" x2="200" y2="588" stroke="rgba(146, 170, 199, 0.12)" /><line x1="240" y1="0" x2="240" y2="588" stroke="rgba(146, 170, 199, 0.12)" /><line x1="280" y1="0" x2="280" y2="588" stroke="rgba(146, 170, 199, 0.12)" /><line x1="320" y1="0" x2="320" y2="588" stroke="rgba(146, 170, 199, 0.12)" /><line x1="360" y1="0" x2="360" y2="588" stroke="rgba(146, 170, 199, 0.12)" /><line x1="400" y1="0" x2="400" y2="588" stroke="rgba(146, 170, 199, 0.12)" /><line x1="440" y1="0" x2="440" y2="588" stroke="rgba(146, 170, 199, 0.12)" /><line x1="480" y1="0" x2="480" y2="588" stroke="rgba(146, 170, 199, 0.12)" /><line x1="520" y1="0" x2="520" y2="588" stroke="rgba(146, 170, 199, 0.12)" /><line x1="560" y1="0" x2="560" y2="588" stroke="rgba(146, 170, 199, 0.12)" /><line x1="600" y1="0" x2="600" y2="588" stroke="rgba(146, 170, 199, 0.12)" /><line x1="640" y1="0" x2="640" y2="588" stroke="rgba(146, 170, 199, 0.12)" /><line x1="680" y1="0" x2="680" y2="588" stroke="rgba(146, 170, 199, 0.12)" /><line x1="720" y1="0" x2="720" y2="588" stroke="rgba(146, 170, 199, 0.12)" /><line x1="760" y1="0" x2="760" y2="588" stroke="rgba(146, 170, 199, 0.12)" /><line x1="800" y1="0" x2="800" y2="588" stroke="rgba(146, 170, 199, 0.12)" /><line x1="840" y1="0" x2="840" y2="588" stroke="rgba(146, 170, 199, 0.12)" /><line x1="880" y1="0" x2="880" y2="588" stroke="rgba(146, 170, 199, 0.12)" /><line x1="920" y1="0" x2="920" y2="588" stroke="rgba(146, 170, 199, 0.12)" /><line x1="960" y1="0" x2="960" y2="588" stroke="rgba(146, 170, 199, 0.12)" /><line x1="1000" y1="0" x2="1000" y2="588" stroke="rgba(146, 170, 199, 0.12)" /><line x1="1040" y1="0" x2="1040" y2="588" stroke="rgba(146, 170, 199, 0.12)" /><line x1="0" y1="0" x2="1052" y2="0" stroke="rgba(146, 170, 199, 0.12)" /><line x1="0" y1="40" x2="1052" y2="40" stroke="rgba(146, 170, 199, 0.12)" /><line x1="0" y1="80" x2="1052" y2="80" stroke="rgba(146, 170, 199, 0.12)" /><line x1="0" y1="120" x2="1052" y2="120" stroke="rgba(146, 170, 199, 0.12)" /><line x1="0" y1="160" x2="1052" y2="160" stroke="rgba(146, 170, 199, 0.12)" /><line x1="0" y1="200" x2="1052" y2="200" stroke="rgba(146, 170, 199, 0.12)" /><line x1="0" y1="240" x2="1052" y2="240" stroke="rgba(146, 170, 199, 0.12)" /><line x1="0" y1="280" x2="1052" y2="280" stroke="rgba(146, 170, 199, 0.12)" /><line x1="0" y1="320" x2="1052" y2="320" stroke="rgba(146, 170, 199, 0.12)" /><line x1="0" y1="360" x2="1052" y2="360" stroke="rgba(146, 170, 199, 0.12)" /><line x1="0" y1="400" x2="1052" y2="400" stroke="rgba(146, 170, 199, 0.12)" /><line x1="0" y1="440" x2="1052" y2="440" stroke="rgba(146, 170, 199, 0.12)" /><line x1="0" y1="480" x2="1052" y2="480" stroke="rgba(146, 170, 199, 0.12)" /><line x1="0" y1="520" x2="1052" y2="520" stroke="rgba(146, 170, 199, 0.12)" /><line x1="0" y1="560" x2="1052" y2="560" stroke="rgba(146, 170, 199, 0.12)" /></g>
          
    <g>
      <path d="M 304 208 L 148 208 L 148 346" fill="none" stroke="#2563eb" stroke-width="3" stroke-linecap="round" stroke-linejoin="round" />
      
      
      <circle cx="148" cy="346" r="4.5" fill="#2563eb" />
      
    </g>
  
    <g>
      <path d="M 304 208 L 424 208 L 424 346" fill="none" stroke="#2563eb" stroke-width="3" stroke-linecap="round" stroke-linejoin="round" />
      
      
      <circle cx="424" cy="346" r="4.5" fill="#2563eb" />
      
    </g>
  
    <g>
      <path d="M 304 208 L 706 208 L 706 346" fill="none" stroke="#2563eb" stroke-width="3" stroke-linecap="round" stroke-linejoin="round" />
      
      
      <circle cx="706" cy="346" r="4.5" fill="#2563eb" />
      
    </g>
  
          
    <g>
      
      <rect x="210" y="100" width="188" height="92" rx="22" fill="#f8fbff" stroke="#bfd2ea" stroke-width="2" />
      <rect x="226" y="114" width="60" height="24" rx="12" fill="#eaf2fb" />
      <text x="256" y="130" text-anchor="middle" font-size="12" font-family="Arial, sans-serif" fill="#3f6ea7">Agent</text>
      <text x="226" y="158" font-size="18" font-weight="700" font-family="Arial, sans-serif" fill="#11263c">Planner</text>
      <text x="226" y="178" font-size="12" font-family="Arial, sans-serif" fill="#6b7f96">Editable agent node</text>
    </g>
  
    <g>
      
      <rect x="54" y="362" width="188" height="92" rx="22" fill="#f8fbff" stroke="#bfd2ea" stroke-width="2" />
      <rect x="70" y="376" width="60" height="24" rx="12" fill="#eaf2fb" />
      <text x="100" y="392" text-anchor="middle" font-size="12" font-family="Arial, sans-serif" fill="#3f6ea7">Agent</text>
      <text x="70" y="420" font-size="18" font-weight="700" font-family="Arial, sans-serif" fill="#11263c">Research</text>
      <text x="70" y="440" font-size="12" font-family="Arial, sans-serif" fill="#6b7f96">Editable agent node</text>
    </g>
  
    <g>
      
      <rect x="330" y="362" width="188" height="92" rx="22" fill="#f8fbff" stroke="#bfd2ea" stroke-width="2" />
      <rect x="346" y="376" width="60" height="24" rx="12" fill="#eaf2fb" />
      <text x="376" y="392" text-anchor="middle" font-size="12" font-family="Arial, sans-serif" fill="#3f6ea7">Agent</text>
      <text x="346" y="420" font-size="18" font-weight="700" font-family="Arial, sans-serif" fill="#11263c">Compliance</text>
      <text x="346" y="440" font-size="12" font-family="Arial, sans-serif" fill="#6b7f96">Editable agent node</text>
    </g>
  
    <g>
      
      <rect x="612" y="362" width="188" height="92" rx="22" fill="#f8fbff" stroke="#bfd2ea" stroke-width="2" />
      <rect x="628" y="376" width="60" height="24" rx="12" fill="#eaf2fb" />
      <text x="658" y="392" text-anchor="middle" font-size="12" font-family="Arial, sans-serif" fill="#3f6ea7">Agent</text>
      <text x="628" y="420" font-size="18" font-weight="700" font-family="Arial, sans-serif" fill="#11263c">Writer</text>
      <text x="628" y="440" font-size="12" font-family="Arial, sans-serif" fill="#6b7f96">Editable agent node</text>
    </g>
  
        </g>
      </g>
      
    </svg>
  